# xmcd
#
# Track frame offsets: 
#        150
#        17810
#        33101
#        49256
#        72451
#        84328
#        96303
#        111610
#        129371
#        148720
#        164497
#        181068
#        194255
#        214774
#        230963
#        250844
#        269987
#        289296
#
# Disc length: 4165 seconds
#
# Revision: 0
# Processed by: cddbd v1.5.2PL0 Copyright (c) Steve Scherf et al.
# Submitted via: ExactAudioCopy v1.0b6
#
DISCID=1b104312
DTITLE=Marilyn Bouvier and David McIntyre - Our Lady Guadalupe (2013)
DYEAR=2013
DGENRE=Country
TTITLE0=Ride Out The Storm 
TTITLE1=Cast A Stone
TTITLE2=Child Of God
TTITLE3=Paul’s Ministry
TTITLE4=I Feel The Spirit Moving
TTITLE5=Footprints
TTITLE6=The Way, The Truth And The Life
TTITLE7=When He Was On The Cross
TTITLE8=How Can You Refuse Him Now
TTITLE9=It Takes Jesus To Make A Home
TTITLE10=I’ll Let You Come In
TTITLE11=Take My Hand Precious Lord
TTITLE12=Go Rest High On The Mountain
TTITLE13=I’m Safely In The Arms Of Jesus
TTITLE14=Shattered Dreams
TTITLE15=Sometime, We’ll Understand
TTITLE16=I Need Your Helping Hand
TTITLE17=Song To Our Lady Guadalupe
EXTD=
EXTT0=
EXTT1=
EXTT2=
EXTT3=
EXTT4=
EXTT5=
EXTT6=
EXTT7=
EXTT8=
EXTT9=
EXTT10=
EXTT11=
EXTT12=
EXTT13=
EXTT14=
EXTT15=
EXTT16=
EXTT17=
PLAYORDER=
